<svg width="18" height="12" viewBox="0 0 18 12" fill="none" xmlns="http://www.w3.org/2000/svg">
<path d="M6.70993 0.285093C7.08696 0.663915 7.08551 1.27664 6.70669 1.65367L3.31175 5.03226L17.0323 5.03226C17.5667 5.03226 18 5.46552 18 6C18 6.53448 17.5667 6.96774 17.0323 6.96774L3.3117 6.96774L6.70674 10.3463C7.08556 10.7234 7.08701 11.3361 6.70998 11.7149C6.3329 12.0938 5.72017 12.0952 5.34135 11.7182L0.284701 6.68593C0.284361 6.68564 0.284119 6.68531 0.283829 6.68502C-0.0940263 6.30798 -0.0952355 5.69327 0.283781 5.31498C0.284121 5.31469 0.284363 5.31435 0.284653 5.31406L5.3413 0.281803C5.72008 -0.0951334 6.33285 -0.0938268 6.70993 0.285093Z" fill="white"/>
</svg>
