<svg width="32" height="32" viewBox="0 0 32 32" fill="none" xmlns="http://www.w3.org/2000/svg">
<circle opacity="0.32" cx="16" cy="16" r="15.5" stroke="#2E7DC4"/>
<path fill-rule="evenodd" clip-rule="evenodd" d="M8.99995 16.9998C8.73473 16.9998 8.48038 16.8944 8.29284 16.7069C8.1053 16.5193 7.99995 16.265 7.99995 15.9998C7.99995 15.7346 8.1053 15.4802 8.29284 15.2927C8.48038 15.1051 8.73473 14.9998 8.99995 14.9998L20.586 14.9998L16.2919 10.7078C16.199 10.6148 16.1252 10.5044 16.0749 10.3829C16.0246 10.2615 15.9987 10.1313 15.9987 9.99977C15.9987 9.86828 16.0246 9.73808 16.0749 9.6166C16.1252 9.49513 16.199 9.38475 16.2919 9.29177C16.3849 9.1988 16.4953 9.12504 16.6168 9.07473C16.7383 9.02441 16.8685 8.99851 16.9999 8.99851C17.1314 8.99851 17.2616 9.02441 17.3831 9.07473C17.5046 9.12504 17.615 9.1988 17.7079 9.29177L23.708 15.2918C23.8011 15.3847 23.875 15.495 23.9254 15.6165C23.9758 15.738 24.0017 15.8682 24.0017 15.9998C24.0017 16.1313 23.9758 16.2615 23.9254 16.383C23.875 16.5045 23.8011 16.6149 23.708 16.7078L17.708 22.7078C17.5202 22.8955 17.2655 23.001 16.9999 23.001C16.7344 23.001 16.4797 22.8955 16.2919 22.7078C16.1042 22.52 15.9987 22.2653 15.9987 21.9998C15.9987 21.7342 16.1042 21.4795 16.2919 21.2918L20.586 16.9998L8.99995 16.9998Z" fill="#2E7DC4"/>
</svg>
