<svg width="10" height="10" viewBox="0 0 10 10" fill="none" xmlns="http://www.w3.org/2000/svg">
<path d="M0.687845 0.687967C0.747548 0.628113 0.818473 0.580626 0.896557 0.548224C0.974641 0.515823 1.05835 0.499146 1.14289 0.499146C1.22743 0.499146 1.31114 0.515823 1.38922 0.548224C1.46731 0.580626 1.53823 0.628113 1.59793 0.687967L4.99919 4.09051L8.40045 0.687967C8.46021 0.62821 8.53115 0.580808 8.60923 0.548468C8.6873 0.516127 8.77099 0.499482 8.85549 0.499482C8.94 0.499482 9.02369 0.516127 9.10176 0.548468C9.17984 0.580808 9.25078 0.62821 9.31054 0.687967C9.3703 0.747725 9.4177 0.818667 9.45004 0.896743C9.48238 0.97482 9.49902 1.0585 9.49902 1.14301C9.49902 1.22752 9.48238 1.3112 9.45004 1.38928C9.4177 1.46736 9.3703 1.5383 9.31054 1.59806L5.90799 4.99931L9.31054 8.40057C9.3703 8.46033 9.4177 8.53127 9.45004 8.60935C9.48238 8.68742 9.49902 8.77111 9.49902 8.85562C9.49902 8.94013 9.48238 9.02381 9.45004 9.10188C9.4177 9.17996 9.3703 9.2509 9.31054 9.31066C9.25078 9.37042 9.17984 9.41782 9.10176 9.45016C9.02369 9.4825 8.94 9.49915 8.85549 9.49915C8.77099 9.49915 8.6873 9.4825 8.60923 9.45016C8.53115 9.41782 8.46021 9.37042 8.40045 9.31066L4.99919 5.90812L1.59793 9.31066C1.53818 9.37042 1.46723 9.41782 1.38916 9.45016C1.31108 9.4825 1.2274 9.49915 1.14289 9.49915C1.05838 9.49915 0.974698 9.4825 0.896621 9.45016C0.818545 9.41782 0.747603 9.37042 0.687845 9.31066C0.628088 9.2509 0.580686 9.17996 0.548346 9.10188C0.516005 9.02381 0.49936 8.94013 0.49936 8.85562C0.49936 8.77111 0.516005 8.68742 0.548346 8.60935C0.580686 8.53127 0.628088 8.46033 0.687845 8.40057L4.09039 4.99931L0.687845 1.59806C0.627991 1.53835 0.580504 1.46743 0.548102 1.38934C0.515701 1.31126 0.499023 1.22755 0.499023 1.14301C0.499023 1.05847 0.515701 0.974763 0.548102 0.896679C0.580504 0.818595 0.627991 0.74767 0.687845 0.687967Z" fill="white"/>
</svg>
