<svg width="45" height="45" viewBox="0 0 45 45" fill="none" xmlns="http://www.w3.org/2000/svg">
<path fill-rule="evenodd" clip-rule="evenodd" d="M28.3429 14.985L26.2251 14.9864C24.5643 14.9864 24.2423 15.7753 24.2423 16.9327V19.4864H28.2037L27.6876 23.4872H24.2423V33.75H20.1121V23.4872H16.6584V19.4864H20.1121V16.5375C20.1121 13.1133 22.2032 11.25 25.2562 11.25C26.7187 11.25 27.9759 11.3583 28.3429 11.4075V14.985ZM22.5 0C10.0744 0 0 10.073 0 22.5C0 34.9256 10.0744 45 22.5 45C34.927 45 45 34.9256 45 22.5C45 10.073 34.927 0 22.5 0Z" fill="white"/>
</svg>
