<svg width="1439" height="19" viewBox="0 0 1439 19" fill="none" xmlns="http://www.w3.org/2000/svg">
<line x1="0.646447" y1="18.3242" x2="18.3241" y2="0.646512" stroke="#115FAC"/>
<line x1="10.6464" y1="18.3242" x2="28.3241" y2="0.646512" stroke="#115FAC"/>
<line x1="20.6464" y1="18.3242" x2="38.3241" y2="0.646512" stroke="#115FAC"/>
<line x1="30.6464" y1="18.3242" x2="48.3241" y2="0.646512" stroke="#115FAC"/>
<line x1="40.6464" y1="18.3242" x2="58.3241" y2="0.646512" stroke="#115FAC"/>
<line x1="50.6464" y1="18.3242" x2="68.3241" y2="0.646512" stroke="#115FAC"/>
<line x1="60.6464" y1="18.3242" x2="78.3241" y2="0.646512" stroke="#115FAC"/>
<line x1="70.6464" y1="18.3242" x2="88.3241" y2="0.646512" stroke="#115FAC"/>
<line x1="80.6464" y1="18.3242" x2="98.3241" y2="0.646512" stroke="#115FAC"/>
<line x1="90.6464" y1="18.3242" x2="108.324" y2="0.646512" stroke="#115FAC"/>
<line x1="100.646" y1="18.3242" x2="118.324" y2="0.646512" stroke="#115FAC"/>
<line x1="110.646" y1="18.3242" x2="128.324" y2="0.646512" stroke="#115FAC"/>
<line x1="120.646" y1="18.3242" x2="138.324" y2="0.646512" stroke="#115FAC"/>
<line x1="130.646" y1="18.3242" x2="148.324" y2="0.646512" stroke="#115FAC"/>
<line x1="140.646" y1="18.3242" x2="158.324" y2="0.646512" stroke="#115FAC"/>
<line x1="150.646" y1="18.3242" x2="168.324" y2="0.646512" stroke="#115FAC"/>
<line x1="160.646" y1="18.3242" x2="178.324" y2="0.646512" stroke="#115FAC"/>
<line x1="170.646" y1="18.3242" x2="188.324" y2="0.646512" stroke="#115FAC"/>
<line x1="180.646" y1="18.3242" x2="198.324" y2="0.646512" stroke="#115FAC"/>
<line x1="190.646" y1="18.3242" x2="208.324" y2="0.646512" stroke="#115FAC"/>
<line x1="200.646" y1="18.3242" x2="218.324" y2="0.646512" stroke="#115FAC"/>
<line x1="210.646" y1="18.3242" x2="228.324" y2="0.646512" stroke="#115FAC"/>
<line x1="220.646" y1="18.3242" x2="238.324" y2="0.646512" stroke="#115FAC"/>
<line x1="230.646" y1="18.3242" x2="248.324" y2="0.646512" stroke="#115FAC"/>
<line x1="240.646" y1="18.3242" x2="258.324" y2="0.646512" stroke="#115FAC"/>
<line x1="250.646" y1="18.3242" x2="268.324" y2="0.646512" stroke="#115FAC"/>
<line x1="260.646" y1="18.3242" x2="278.324" y2="0.646512" stroke="#115FAC"/>
<line x1="270.646" y1="18.3242" x2="288.324" y2="0.646512" stroke="#115FAC"/>
<line x1="280.646" y1="18.3242" x2="298.324" y2="0.646512" stroke="#115FAC"/>
<line x1="290.646" y1="18.3242" x2="308.324" y2="0.646512" stroke="#115FAC"/>
<line x1="300.646" y1="18.3242" x2="318.324" y2="0.646512" stroke="#115FAC"/>
<line x1="310.646" y1="18.3242" x2="328.324" y2="0.646512" stroke="#115FAC"/>
<line x1="320.646" y1="18.3242" x2="338.324" y2="0.646512" stroke="#115FAC"/>
<line x1="330.646" y1="18.3242" x2="348.324" y2="0.646512" stroke="#115FAC"/>
<line x1="340.646" y1="18.3242" x2="358.324" y2="0.646512" stroke="#115FAC"/>
<line x1="350.646" y1="18.3242" x2="368.324" y2="0.646512" stroke="#115FAC"/>
<line x1="360.646" y1="18.3242" x2="378.324" y2="0.646512" stroke="#115FAC"/>
<line x1="370.646" y1="18.3242" x2="388.324" y2="0.646512" stroke="#115FAC"/>
<line x1="380.646" y1="18.3242" x2="398.324" y2="0.646512" stroke="#115FAC"/>
<line x1="390.646" y1="18.3242" x2="408.324" y2="0.646512" stroke="#115FAC"/>
<line x1="400.646" y1="18.3242" x2="418.324" y2="0.646512" stroke="#115FAC"/>
<line x1="410.646" y1="18.3242" x2="428.324" y2="0.646512" stroke="#115FAC"/>
<line x1="420.646" y1="18.3242" x2="438.324" y2="0.646512" stroke="#115FAC"/>
<line x1="430.646" y1="18.3242" x2="448.324" y2="0.646512" stroke="#115FAC"/>
<line x1="440.646" y1="18.3242" x2="458.324" y2="0.646512" stroke="#115FAC"/>
<line x1="450.646" y1="18.3242" x2="468.324" y2="0.646512" stroke="#115FAC"/>
<line x1="460.646" y1="18.3242" x2="478.324" y2="0.646512" stroke="#115FAC"/>
<line x1="470.646" y1="18.3242" x2="488.324" y2="0.646512" stroke="#115FAC"/>
<line x1="480.646" y1="18.3242" x2="498.324" y2="0.646512" stroke="#115FAC"/>
<line x1="490.646" y1="18.3242" x2="508.324" y2="0.646512" stroke="#115FAC"/>
<line x1="500.646" y1="18.3242" x2="518.324" y2="0.646512" stroke="#115FAC"/>
<line x1="510.646" y1="18.3242" x2="528.324" y2="0.646512" stroke="#115FAC"/>
<line x1="520.646" y1="18.3242" x2="538.324" y2="0.646512" stroke="#115FAC"/>
<line x1="530.646" y1="18.3242" x2="548.324" y2="0.646512" stroke="#115FAC"/>
<line x1="540.646" y1="18.3242" x2="558.324" y2="0.646512" stroke="#115FAC"/>
<line x1="550.646" y1="18.3242" x2="568.324" y2="0.646512" stroke="#115FAC"/>
<line x1="560.646" y1="18.3242" x2="578.324" y2="0.646512" stroke="#115FAC"/>
<line x1="570.646" y1="18.3242" x2="588.324" y2="0.646512" stroke="#115FAC"/>
<line x1="580.646" y1="18.3242" x2="598.324" y2="0.646512" stroke="#115FAC"/>
<line x1="590.646" y1="18.3242" x2="608.324" y2="0.646512" stroke="#115FAC"/>
<line x1="600.646" y1="18.3242" x2="618.324" y2="0.646512" stroke="#115FAC"/>
<line x1="610.646" y1="18.3242" x2="628.324" y2="0.646512" stroke="#115FAC"/>
<line x1="620.646" y1="18.3242" x2="638.324" y2="0.646512" stroke="#115FAC"/>
<line x1="630.646" y1="18.3242" x2="648.324" y2="0.646512" stroke="#115FAC"/>
<line x1="640.646" y1="18.3242" x2="658.324" y2="0.646512" stroke="#115FAC"/>
<line x1="650.646" y1="18.3242" x2="668.324" y2="0.646512" stroke="#115FAC"/>
<line x1="660.646" y1="18.3242" x2="678.324" y2="0.646512" stroke="#115FAC"/>
<line x1="670.646" y1="18.3242" x2="688.324" y2="0.646512" stroke="#115FAC"/>
<line x1="680.646" y1="18.3242" x2="698.324" y2="0.646512" stroke="#115FAC"/>
<line x1="690.646" y1="18.3242" x2="708.324" y2="0.646512" stroke="#115FAC"/>
<line x1="700.646" y1="18.3242" x2="718.324" y2="0.646512" stroke="#115FAC"/>
<line x1="710.646" y1="18.3242" x2="728.324" y2="0.646512" stroke="#115FAC"/>
<line x1="720.646" y1="18.3242" x2="738.324" y2="0.646512" stroke="#115FAC"/>
<line x1="730.646" y1="18.3242" x2="748.324" y2="0.646512" stroke="#115FAC"/>
<line x1="740.646" y1="18.3242" x2="758.324" y2="0.646512" stroke="#115FAC"/>
<line x1="750.646" y1="18.3242" x2="768.324" y2="0.646512" stroke="#115FAC"/>
<line x1="760.646" y1="18.3242" x2="778.324" y2="0.646512" stroke="#115FAC"/>
<line x1="770.646" y1="18.3242" x2="788.324" y2="0.646512" stroke="#115FAC"/>
<line x1="780.646" y1="18.3242" x2="798.324" y2="0.646512" stroke="#115FAC"/>
<line x1="790.646" y1="18.3242" x2="808.324" y2="0.646512" stroke="#115FAC"/>
<line x1="800.646" y1="18.3242" x2="818.324" y2="0.646512" stroke="#115FAC"/>
<line x1="810.646" y1="18.3242" x2="828.324" y2="0.646512" stroke="#115FAC"/>
<line x1="820.646" y1="18.3242" x2="838.324" y2="0.646512" stroke="#115FAC"/>
<line x1="830.646" y1="18.3242" x2="848.324" y2="0.646512" stroke="#115FAC"/>
<line x1="840.646" y1="18.3242" x2="858.324" y2="0.646512" stroke="#115FAC"/>
<line x1="850.646" y1="18.3242" x2="868.324" y2="0.646512" stroke="#115FAC"/>
<line x1="860.646" y1="18.3242" x2="878.324" y2="0.646512" stroke="#115FAC"/>
<line x1="870.646" y1="18.3242" x2="888.324" y2="0.646512" stroke="#115FAC"/>
<line x1="880.646" y1="18.3242" x2="898.324" y2="0.646512" stroke="#115FAC"/>
<line x1="890.646" y1="18.3242" x2="908.324" y2="0.646512" stroke="#115FAC"/>
<line x1="900.646" y1="18.3242" x2="918.324" y2="0.646512" stroke="#115FAC"/>
<line x1="910.646" y1="18.3242" x2="928.324" y2="0.646512" stroke="#115FAC"/>
<line x1="920.646" y1="18.3242" x2="938.324" y2="0.646512" stroke="#115FAC"/>
<line x1="930.646" y1="18.3242" x2="948.324" y2="0.646512" stroke="#115FAC"/>
<line x1="940.646" y1="18.3242" x2="958.324" y2="0.646512" stroke="#115FAC"/>
<line x1="950.646" y1="18.3242" x2="968.324" y2="0.646512" stroke="#115FAC"/>
<line x1="960.646" y1="18.3242" x2="978.324" y2="0.646512" stroke="#115FAC"/>
<line x1="970.646" y1="18.3242" x2="988.324" y2="0.646512" stroke="#115FAC"/>
<line x1="980.646" y1="18.3242" x2="998.324" y2="0.646512" stroke="#115FAC"/>
<line x1="990.646" y1="18.3242" x2="1008.32" y2="0.646512" stroke="#115FAC"/>
<line x1="1000.65" y1="18.3242" x2="1018.32" y2="0.646512" stroke="#115FAC"/>
<line x1="1010.65" y1="18.3242" x2="1028.32" y2="0.646512" stroke="#115FAC"/>
<line x1="1020.65" y1="18.3242" x2="1038.32" y2="0.646512" stroke="#115FAC"/>
<line x1="1030.65" y1="18.3242" x2="1048.32" y2="0.646512" stroke="#115FAC"/>
<line x1="1040.65" y1="18.3242" x2="1058.32" y2="0.646512" stroke="#115FAC"/>
<line x1="1050.65" y1="18.3242" x2="1068.32" y2="0.646512" stroke="#115FAC"/>
<line x1="1060.65" y1="18.3242" x2="1078.32" y2="0.646512" stroke="#115FAC"/>
<line x1="1070.65" y1="18.3242" x2="1088.32" y2="0.646512" stroke="#115FAC"/>
<line x1="1080.65" y1="18.3242" x2="1098.32" y2="0.646512" stroke="#115FAC"/>
<line x1="1090.65" y1="18.3242" x2="1108.32" y2="0.646512" stroke="#115FAC"/>
<line x1="1100.65" y1="18.3242" x2="1118.32" y2="0.646512" stroke="#115FAC"/>
<line x1="1110.65" y1="18.3242" x2="1128.32" y2="0.646512" stroke="#115FAC"/>
<line x1="1120.65" y1="18.3242" x2="1138.32" y2="0.646512" stroke="#115FAC"/>
<line x1="1130.65" y1="18.3242" x2="1148.32" y2="0.646512" stroke="#115FAC"/>
<line x1="1140.65" y1="18.3242" x2="1158.32" y2="0.646512" stroke="#115FAC"/>
<line x1="1150.65" y1="18.3242" x2="1168.32" y2="0.646512" stroke="#115FAC"/>
<line x1="1160.65" y1="18.3242" x2="1178.32" y2="0.646512" stroke="#115FAC"/>
<line x1="1170.65" y1="18.3242" x2="1188.32" y2="0.646512" stroke="#115FAC"/>
<line x1="1180.65" y1="18.3242" x2="1198.32" y2="0.646512" stroke="#115FAC"/>
<line x1="1190.65" y1="18.3242" x2="1208.32" y2="0.646512" stroke="#115FAC"/>
<line x1="1200.65" y1="18.3242" x2="1218.32" y2="0.646512" stroke="#115FAC"/>
<line x1="1210.65" y1="18.3242" x2="1228.32" y2="0.646512" stroke="#115FAC"/>
<line x1="1220.65" y1="18.3242" x2="1238.32" y2="0.646512" stroke="#115FAC"/>
<line x1="1230.65" y1="18.3242" x2="1248.32" y2="0.646512" stroke="#115FAC"/>
<line x1="1240.65" y1="18.3242" x2="1258.32" y2="0.646512" stroke="#115FAC"/>
<line x1="1250.65" y1="18.3242" x2="1268.32" y2="0.646512" stroke="#115FAC"/>
<line x1="1260.65" y1="18.3242" x2="1278.32" y2="0.646512" stroke="#115FAC"/>
<line x1="1270.65" y1="18.3242" x2="1288.32" y2="0.646512" stroke="#115FAC"/>
<line x1="1280.65" y1="18.3242" x2="1298.32" y2="0.646512" stroke="#115FAC"/>
<line x1="1290.65" y1="18.3242" x2="1308.32" y2="0.646512" stroke="#115FAC"/>
<line x1="1300.65" y1="18.3242" x2="1318.32" y2="0.646512" stroke="#115FAC"/>
<line x1="1310.65" y1="18.3242" x2="1328.32" y2="0.646512" stroke="#115FAC"/>
<line x1="1320.65" y1="18.3242" x2="1338.32" y2="0.646512" stroke="#115FAC"/>
<line x1="1330.65" y1="18.3242" x2="1348.32" y2="0.646512" stroke="#115FAC"/>
<line x1="1340.65" y1="18.3242" x2="1358.32" y2="0.646512" stroke="#115FAC"/>
<line x1="1350.65" y1="18.3242" x2="1368.32" y2="0.646512" stroke="#115FAC"/>
<line x1="1360.65" y1="18.3242" x2="1378.32" y2="0.646512" stroke="#115FAC"/>
<line x1="1370.65" y1="18.3242" x2="1388.32" y2="0.646512" stroke="#115FAC"/>
<line x1="1380.65" y1="18.3242" x2="1398.32" y2="0.646512" stroke="#115FAC"/>
<line x1="1390.65" y1="18.3242" x2="1408.32" y2="0.646512" stroke="#115FAC"/>
<line x1="1400.65" y1="18.3242" x2="1418.32" y2="0.646512" stroke="#115FAC"/>
<line x1="1410.65" y1="18.3242" x2="1428.32" y2="0.646512" stroke="#115FAC"/>
<line x1="1420.65" y1="18.3242" x2="1438.32" y2="0.646512" stroke="#115FAC"/>
</svg>
