<svg width="32" height="29" viewBox="0 0 32 29" fill="none" xmlns="http://www.w3.org/2000/svg">
<path d="M1.14286 5.4875H30.8571C31.4884 5.4875 32 4.97266 32 4.3375V1.4625C32 0.827341 31.4884 0.3125 30.8571 0.3125H1.14286C0.511643 0.3125 0 0.827341 0 1.4625V4.3375C0 4.97266 0.511643 5.4875 1.14286 5.4875ZM1.14286 16.9875H30.8571C31.4884 16.9875 32 16.4727 32 15.8375V12.9625C32 12.3273 31.4884 11.8125 30.8571 11.8125H1.14286C0.511643 11.8125 0 12.3273 0 12.9625V15.8375C0 16.4727 0.511643 16.9875 1.14286 16.9875ZM1.14286 28.4875H30.8571C31.4884 28.4875 32 27.9727 32 27.3375V24.4625C32 23.8273 31.4884 23.3125 30.8571 23.3125H1.14286C0.511643 23.3125 0 23.8273 0 24.4625V27.3375C0 27.9727 0.511643 28.4875 1.14286 28.4875Z" fill="white"/>
</svg>
