<svg width="33" height="33" viewBox="0 0 33 33" fill="none" xmlns="http://www.w3.org/2000/svg">
<path d="M1.17051 1.17051C1.38279 0.957698 1.63497 0.788853 1.9126 0.673648C2.19023 0.558444 2.48786 0.499146 2.78845 0.499146C3.08903 0.499146 3.38666 0.558444 3.6643 0.673648C3.94193 0.788853 4.1941 0.957698 4.40638 1.17051L16.4997 13.2685L28.5931 1.17051C28.8056 0.958042 29.0578 0.789502 29.3354 0.674514C29.613 0.559526 29.9106 0.500342 30.211 0.500342C30.5115 0.500342 30.8091 0.559526 31.0867 0.674514C31.3643 0.789502 31.6165 0.958042 31.829 1.17051C32.0414 1.38298 32.21 1.63522 32.325 1.91283C32.44 2.19043 32.4991 2.48797 32.4991 2.78845C32.4991 3.08892 32.44 3.38646 32.325 3.66407C32.21 3.94167 32.0414 4.19391 31.829 4.40638L19.731 16.4997L31.829 28.5931C32.0414 28.8056 32.21 29.0578 32.325 29.3354C32.44 29.613 32.4991 29.9106 32.4991 30.211C32.4991 30.5115 32.44 30.8091 32.325 31.0867C32.21 31.3643 32.0414 31.6165 31.829 31.829C31.6165 32.0414 31.3643 32.21 31.0867 32.325C30.8091 32.44 30.5115 32.4991 30.211 32.4991C29.9106 32.4991 29.613 32.44 29.3354 32.325C29.0578 32.21 28.8056 32.0414 28.5931 31.829L16.4997 19.731L4.40638 31.829C4.19391 32.0414 3.94167 32.21 3.66407 32.325C3.38646 32.44 3.08892 32.4991 2.78845 32.4991C2.48797 32.4991 2.19043 32.44 1.91283 32.325C1.63522 32.21 1.38298 32.0414 1.17051 31.829C0.958042 31.6165 0.789502 31.3643 0.674514 31.0867C0.559526 30.8091 0.500342 30.5115 0.500342 30.211C0.500342 29.9106 0.559526 29.613 0.674514 29.3354C0.789502 29.0578 0.958042 28.8056 1.17051 28.5931L13.2685 16.4997L1.17051 4.40638C0.957698 4.1941 0.788853 3.94193 0.673648 3.6643C0.558444 3.38666 0.499146 3.08903 0.499146 2.78845C0.499146 2.48786 0.558444 2.19023 0.673648 1.9126C0.788853 1.63497 0.957698 1.38279 1.17051 1.17051Z" fill="white"/>
</svg>
