<svg width="32" height="32" viewBox="0 0 32 32" fill="none" xmlns="http://www.w3.org/2000/svg">
<path d="M16 0.5C7.44019 0.5 0.5 7.44269 0.5 16C0.5 24.5623 7.44019 31.5 16 31.5C24.5598 31.5 31.5 24.5623 31.5 16C31.5 7.44269 24.5598 0.5 16 0.5ZM16 7.375C17.4497 7.375 18.625 8.55025 18.625 10C18.625 11.4497 17.4497 12.625 16 12.625C14.5503 12.625 13.375 11.4497 13.375 10C13.375 8.55025 14.5503 7.375 16 7.375ZM19.5 23.25C19.5 23.6642 19.1642 24 18.75 24H13.25C12.8358 24 12.5 23.6642 12.5 23.25V21.75C12.5 21.3358 12.8358 21 13.25 21H14V17H13.25C12.8358 17 12.5 16.6642 12.5 16.25V14.75C12.5 14.3358 12.8358 14 13.25 14H17.25C17.6642 14 18 14.3358 18 14.75V21H18.75C19.1642 21 19.5 21.3358 19.5 21.75V23.25Z" fill="#2E7DC4"/>
</svg>
