<svg width="16" height="17" viewBox="0 0 16 17" fill="none" xmlns="http://www.w3.org/2000/svg">
<path d="M14.2857 0.5H1.71429C0.7675 0.5 0 1.2675 0 2.21429V14.7857C0 15.7325 0.7675 16.5 1.71429 16.5H14.2857C15.2325 16.5 16 15.7325 16 14.7857V2.21429C16 1.2675 15.2325 0.5 14.2857 0.5ZM14.2857 14.7857H1.71429V2.21429H14.2857V14.7857ZM13.0049 6.15272L6.84096 12.2671C6.67293 12.4338 6.40157 12.4328 6.23489 12.2647L2.99271 8.99629C2.82604 8.82825 2.82711 8.55689 2.99518 8.39018L3.80657 7.58532C3.97461 7.41864 4.24596 7.41971 4.41264 7.58779L6.54807 9.74054L11.5964 4.73282C11.7644 4.56614 12.0358 4.56721 12.2024 4.73525L13.0073 5.54661C13.174 5.71468 13.1729 5.98604 13.0049 6.15272Z" fill="#81C4FF"/>
</svg>
