<svg width="32" height="32" viewBox="0 0 32 32" fill="none" xmlns="http://www.w3.org/2000/svg">
<path d="M18.1 0.87C16.94 -0.29 15.06 -0.29 13.9 0.87L0.871953 13.9C-0.288047 15.06 -0.288047 16.938 0.871953 18.096L13.904 31.128C15.064 32.288 16.942 32.288 18.1 31.128L31.132 18.096C32.292 16.936 32.292 15.058 31.132 13.9L18.1 0.87ZM10.99 12.066C10.9255 12.0669 10.8615 12.0546 10.802 12.0299C10.7424 12.0052 10.6885 11.9686 10.6436 11.9224C10.5986 11.8761 10.5636 11.8212 10.5406 11.761C10.5177 11.7007 10.5072 11.6364 10.51 11.572C10.7 8.182 13.474 7 16.01 7C18.802 7 21.354 8.46 21.354 11.48C21.354 13.64 20.084 14.668 18.866 15.594C17.392 16.712 16.846 17.13 16.846 18.566V18.776C16.846 18.9086 16.7933 19.0358 16.6995 19.1296C16.6057 19.2233 16.4786 19.276 16.346 19.276H14.726C14.5947 19.276 14.4687 19.2244 14.3752 19.1324C14.2817 19.0403 14.2281 18.9152 14.226 18.784L14.218 18.35C14.142 16.496 15.208 15.354 16.554 14.376C17.734 13.488 18.484 12.904 18.484 11.634C18.484 9.984 17.228 9.298 15.856 9.298C14.25 9.298 13.35 10.254 13.172 11.566C13.136 11.84 12.916 12.066 12.64 12.066H10.99V12.066ZM15.64 24.952C14.472 24.952 13.622 24.164 13.622 23.098C13.622 21.994 14.472 21.218 15.642 21.218C16.86 21.218 17.698 21.994 17.698 23.098C17.698 24.164 16.858 24.952 15.64 24.952Z" fill="#0B4E89"/>
</svg>
